<svg width="34" height="34" xmlns="http://www.w3.org/2000/svg" fill="#000000" version="1.1">
 <g id="SVGRepo_iconCarrier">
  <title>notification</title>
  <desc>Created with Sketch.</desc>
  <defs>
   <linearGradient id="linearGradient-1" y2="100%" x2="50%" y1="0%" x1="50%">
    <stop offset="0%" stop-color="#434B56"/>
    <stop offset="100%" stop-color="#434B56"/>
   </linearGradient>
   <linearGradient id="linearGradient-2" y2="100%" x2="50%" y1="0%" x1="50%">
    <stop offset="0%" stop-color="#434B56"/>
    <stop offset="100%" stop-color="#434B56"/>
   </linearGradient>
   <linearGradient id="linearGradient-3" y2="100%" x2="50%" y1="0%" x1="50%">
    <stop offset="0%" stop-color="#434B56"/>
    <stop offset="100%" stop-color="#434B56"/>
   </linearGradient>
   <linearGradient id="linearGradient-4" y2="100%" x2="50%" y1="0%" x1="50%">
    <stop offset="0%" stop-color="#434B56"/>
    <stop offset="100%" stop-color="#434B56"/>
   </linearGradient>
   <linearGradient spreadMethod="pad" y2="1" x2="0.5" y1="0" x1="0.5" id="svg_5">
    <stop offset="0" stop-opacity="0.99219" stop-color="#1395ffff"/> // 0a68b5
    <stop offset="1" stop-opacity="0.99219" stop-color="#0a5282"/> // 0a5282 // 85ABCC
   </linearGradient>
  </defs>
  <g fill-rule="evenodd" fill="none" id="icons">
   <g fill-rule="nonzero" id="ui-gambling-website-lined-icnos-casinoshunter">
    <g id="4">
     <g id="notification">
      <path fill="url(#linearGradient-1)" id="Path" d="m26,24.68959l0,-10.68959c0,-6.07513 -4.92487,-11 -11,-11c-6.07513,0 -11,4.92487 -11,11l0,10.68959l2,0c2.68629,0 5.68629,0 9,0c3.31371,0 6.31371,0 9,0l2,0z"/>
      <path fill="url(#linearGradient-2)" id="Path" d="m26.5,23c1.933,0 3.5,1.567 3.5,3.5c0,1.933 -1.567,3.5 -3.5,3.5l-23,0c-1.933,0 -3.5,-1.567 -3.5,-3.5c0,-1.933 1.567,-3.5 3.5,-3.5l23,0z"/>
      <path transform="rotate(-180 15 31) translate(-15 -31)" fill="url(#linearGradient-3)" id="Oval" d="m36,65c0,-3.31371 -2.68629,-6 -6,-6c-3.31371,0 -6,2.68629 -6,6l12,0z"/>
      <path transform="rotate(-180 15 2.5314) translate(-15 -2.5314)" fill="url(#linearGradient-4)" id="Rectangle-Copy-11" d="m32,2.5314l-4,0l-2,0l0,1.5628c0,1.933 1.567,3.5 3.5,3.5l1,0c1.933,0 3.5,-1.567 3.5,-3.5l0,-1.5628l-2,0z"/>
      <path transform="translate(1335 33) translate(50 1871) translate(-1385 -1904)" fill="url(#linearGradient-5)" id="Path" d="m24,3c-2.76142,0 -5,2.23858 -5,5c0,2.76142 2.23858,5 5,5c2.76142,0 5,-2.23858 5,-5c0,-2.76142 -2.23858,-5 -5,-5z"/>
     </g>
    </g>
   </g>
  </g>
 </g>
 <g>
  <title>Layer 1</title>
  <g stroke-width="0" id="SVGRepo_bgCarrier"/>
  <g stroke-linejoin="round" stroke-linecap="round" id="SVGRepo_tracerCarrier"/>
  <ellipse stroke="#0a62ae" stroke-width="0" ry="6.78082" rx="7.00913" id="svg_1" cy="10" cx="24" fill="url(#svg_5)"/>
 </g>
</svg>